#
# Bunkspeed OBJ File
# http://www.bunkspeed.com
#
mtllib kibrit.mtl

##########################
g Kök|Parça1_(Varsayılan)|Varsayılan|Varsayılan_-_Parça
##########################
v 0.1279574 0.02628884 0.008617257
v 0.1279574 0.02628884 0.0001
v 0.1275574 0.02628884 0.008617257
v 0.1275574 0.02628884 0.0001
v 0.1275574 0.0002999902 0.008617257
v 0.1275574 0.0002999902 0.0001
v 0.1279574 0.0002999902 0.008617257
v 0.1279574 0.0002999902 0.0001
v 0.1275574 0.02628884 0.008617257
v 0.1275574 0.02628884 0.0001
v 0.1275574 0.0002999902 0.008617257
v 0.1275574 0.0002999902 0.0001
v 0.1279574 0.0002999902 0.0001
v 0.1279574 0.02628884 0.0001
v 0.1279574 0.0002999902 0.008617257
v 0.1279574 0.02628884 0.008617257
v 0.1039471 0.03079534 0.0001
v 0.1039471 0.03079534 0.008831935
v 0.1043471 0.03079534 0.0001
v 0.1043471 0.03079534 0.008831935
v 0.1039471 0.03079534 0.008831935
v 0.1039471 0.0002999902 0.008831935
v 0.1043471 0.03079534 0.008831935
v 0.1043471 0.0002999902 0.008831935
v 0.1043471 0.03079534 0.0001
v 0.1043471 0.03079534 0.008831935
v 0.1043471 0.0002999902 0.0001
v 0.1043471 0.0002999902 0.008831935
v 0.1043471 0.0002999902 0.0001
v 0.1043471 0.0002999902 0.008831935
v 0.1039471 0.0002999902 0.0001
v 0.1039471 0.0002999902 0.008831935
v 0.1043764 0.03079534 2.928932E-05
v 0.1040936 0.03079534 -0.0002535534
v 0.1043683 0.03079534 3.853214E-05
v 0.1040528 0.03079534 -0.0002073393
v 0.1043556 0.03079534 5.966828E-05
v 0.1039896 0.03079534 -0.0001016586
v 0.1043486 0.03079534 8.324938E-05
v 0.1039542 0.03079534 1.624689E-05
v 0.1043471 0.03079534 0.0001
v 0.1039471 0.03079534 0.0001
v 0.1039471 0.0002999902 0.008831935
v 0.1039471 0.03079534 0.008831935
v 0.1039471 0.0002999902 0.0001
v 0.1039471 0.03079534 0.0001
v 0.1044471 0.0307931 0
v 0.1044471 0.0307931 -0.0004
v 0.1044412 0.03079328 1.808855E-07
v 0.1044174 0.03079328 -0.0003990956
v 0.1044225 0.03079382 3.116691E-06
v 0.1043241 0.03079382 -0.0003844166
v 0.1044068 0.03079429 8.54375E-06
v 0.1042456 0.03079429 -0.0003572813
v 0.1044049 0.03079435 9.424118E-06
v 0.1042359 0.03079435 -0.0003528795
v 0.1043891 0.03079486 1.861323E-05
v 0.1041568 0.03079486 -0.000306934
v 0.1043857 0.03079498 2.113318E-05
v 0.1041398 0.03079498 -0.0002943341
v 0.1043764 0.03079534 2.928932E-05
v 0.1040936 0.03079534 -0.0002535534
v 0.1044471 0.0002999902 0
v 0.1044471 0.0307931 0
v 0.1044304 0.0002999902 1.412898E-06
v 0.1044412 0.03079328 1.808855E-07
v 0.1044412 0.03079328 1.808855E-07
v 0.1044225 0.03079382 3.116691E-06
v 0.1044304 0.0002999902 1.412898E-06
v 0.1044068 0.03079429 8.54375E-06
v 0.1044068 0.0002999902 8.493975E-06
v 0.1044049 0.03079435 9.424118E-06
v 0.1043857 0.0002999902 2.112223E-05
v 0.1043891 0.03079486 1.861323E-05
v 0.1043891 0.03079486 1.861323E-05
v 0.1043857 0.03079498 2.113318E-05
v 0.1043857 0.0002999902 2.112223E-05
v 0.1043764 0.03079534 2.928932E-05
v 0.1043683 0.0002999902 3.853214E-05
v 0.1043683 0.03079534 3.853214E-05
v 0.1043556 0.0002999902 5.966828E-05
v 0.1043556 0.03079534 5.966828E-05
v 0.1043486 0.0002999902 8.324938E-05
v 0.1043486 0.03079534 8.324938E-05
v 0.1043471 0.0002999902 0.0001
v 0.1043471 0.03079534 0.0001
v 0.1043471 0.0002999902 0.0001
v 0.1039471 0.0002999902 0.0001
v 0.1043486 0.0002999902 8.324938E-05
v 0.1039542 0.0002999902 1.624689E-05
v 0.1043556 0.0002999902 5.966828E-05
v 0.1039896 0.0002999902 -0.0001016586
v 0.1043683 0.0002999902 3.853214E-05
v 0.1040528 0.0002999902 -0.0002073393
v 0.1043857 0.0002999902 2.112223E-05
v 0.1041398 0.0002999902 -0.0002943888
v 0.1044068 0.0002999902 8.493975E-06
v 0.1042455 0.0002999902 -0.0003575301
v 0.1044304 0.0002999902 1.412898E-06
v 0.1043634 0.0002999902 -0.0003929355
v 0.1044471 0.0002999902 0
v 0.1044471 0.0002999902 -0.0004
v 0.1088123 0.02628884 0
v 0.1088123 0.02628884 -0.0004
v 0.1087844 0.02678886 -0.0004
v 0.1088123 0.02628884 0
v 0.1087844 0.02678886 -0.0004
v 0.1087844 0.02678886 0
v 0.1086119 0.02761772 -0.0004
v 0.1086119 0.02761772 0
v 0.1082873 0.02839971 -0.0004
v 0.1082873 0.02839971 0
v 0.1078222 0.02910715 -0.0004
v 0.1078222 0.02910715 0
v 0.107233 0.02971515 -0.0004
v 0.107233 0.02971515 0
v 0.1065405 0.03020221 -0.0004
v 0.1065405 0.03020221 0
v 0.1057691 0.03055114 -0.0004
v 0.1057691 0.03055114 0
v 0.104946 0.03074962 -0.0004
v 0.104946 0.03074962 0
v 0.1044471 0.0307931 -0.0004
v 0.1044471 0.0307931 0
v 0.1043241 0.03079382 -0.0003844166
v 0.1043634 0.0002999902 -0.0003929355
v 0.1042455 0.0002999902 -0.0003575301
v 0.1043634 0.0002999902 -0.0003929355
v 0.1043241 0.03079382 -0.0003844166
v 0.1044471 0.0002999902 -0.0004
v 0.1044174 0.03079328 -0.0003990956
v 0.1044471 0.0307931 -0.0004
v 0.1041568 0.03079486 -0.000306934
v 0.1042359 0.03079435 -0.0003528795
v 0.1042455 0.0002999902 -0.0003575301
v 0.1042456 0.03079429 -0.0003572813
v 0.1043241 0.03079382 -0.0003844166
v 0.1041568 0.03079486 -0.000306934
v 0.1042455 0.0002999902 -0.0003575301
v 0.1041398 0.03079498 -0.0002943341
v 0.1041398 0.0002999902 -0.0002943888
v 0.1040936 0.03079534 -0.0002535534
v 0.1040528 0.0002999902 -0.0002073393
v 0.1040528 0.03079534 -0.0002073393
v 0.1039896 0.0002999902 -0.0001016586
v 0.1039896 0.03079534 -0.0001016586
v 0.1039542 0.0002999902 1.624689E-05
v 0.1039542 0.03079534 1.624689E-05
v 0.1039471 0.0002999902 0.0001
v 0.1039471 0.03079534 0.0001
v 0.1274574 0.02628884 -0.0004
v 0.1274574 0.0002999902 -0.0004
v 0.1088123 0.02628884 -0.0004
v 0.1044471 0.0002999902 -0.0004
v 0.1087844 0.02678886 -0.0004
v 0.1088123 0.02628884 -0.0004
v 0.104946 0.03074962 -0.0004
v 0.1044471 0.0002999902 -0.0004
v 0.1044471 0.0307931 -0.0004
v 0.1082873 0.02839971 -0.0004
v 0.1065405 0.03020221 -0.0004
v 0.1078222 0.02910715 -0.0004
v 0.107233 0.02971515 -0.0004
v 0.104946 0.03074962 -0.0004
v 0.1057691 0.03055114 -0.0004
v 0.1087844 0.02678886 -0.0004
v 0.1065405 0.03020221 -0.0004
v 0.1086119 0.02761772 -0.0004
v 0.1082873 0.02839971 -0.0004
v 0.1274574 0.0002999902 0
v 0.1044471 0.0002999902 0
v 0.1274574 0.0002999902 -0.0004
v 0.1044471 0.0002999902 -0.0004
v 0.1274574 0.0002999902 0
v 0.1274574 0.02628884 0
v 0.1044471 0.0002999902 0
v 0.1088123 0.02628884 0
v 0.1044471 0.0307931 0
v 0.1087844 0.02678886 0
v 0.104946 0.03074962 0
v 0.1086119 0.02761772 0
v 0.1065405 0.03020221 0
v 0.1087844 0.02678886 0
v 0.1057691 0.03055114 0
v 0.104946 0.03074962 0
v 0.1086119 0.02761772 0
v 0.1082873 0.02839971 0
v 0.1065405 0.03020221 0
v 0.1078222 0.02910715 0
v 0.107233 0.02971515 0
v 0.1274574 0.02628884 -0.0004
v 0.1088123 0.02628884 -0.0004
v 0.1274574 0.02628884 0
v 0.1088123 0.02628884 0
v 0.1274574 0.0002999902 0
v 0.1274574 0.0002999902 -0.0004
v 0.1274833 0.0002999902 3.407417E-06
v 0.1275868 0.0002999902 -0.0003829629
v 0.1275074 0.0002999902 1.339746E-05
v 0.1277074 0.0002999902 -0.0003330127
v 0.1275281 0.0002999902 2.928932E-05
v 0.127811 0.0002999902 -0.0002535534
v 0.127544 0.0002999902 5E-05
v 0.1278905 0.0002999902 -0.00015
v 0.127554 0.0002999902 7.411809E-05
v 0.1279404 0.0002999902 -2.940952E-05
v 0.1275574 0.0002999902 0.0001
v 0.1279574 0.0002999902 0.0001
v 0.1275574 0.02628884 0.0001
v 0.1279574 0.02628884 0.0001
v 0.127554 0.02628884 7.411809E-05
v 0.1279404 0.02628884 -2.940952E-05
v 0.127544 0.02628884 5E-05
v 0.1278905 0.02628884 -0.00015
v 0.1275281 0.02628884 2.928932E-05
v 0.127811 0.02628884 -0.0002535534
v 0.1275074 0.02628884 1.339746E-05
v 0.1277074 0.02628884 -0.0003330127
v 0.1274833 0.02628884 3.407417E-06
v 0.1275868 0.02628884 -0.0003829629
v 0.1274574 0.02628884 0
v 0.1274574 0.02628884 -0.0004
v 0.1279574 0.02628884 0.0001
v 0.1279574 0.0002999902 0.0001
v 0.1279404 0.0002999902 -2.940952E-05
v 0.1279574 0.02628884 0.0001
v 0.1279404 0.0002999902 -2.940952E-05
v 0.1279404 0.02628884 -2.940952E-05
v 0.1278905 0.0002999902 -0.00015
v 0.1278905 0.02628884 -0.00015
v 0.127811 0.0002999902 -0.0002535534
v 0.127811 0.02628884 -0.0002535534
v 0.1277074 0.0002999902 -0.0003330127
v 0.1277074 0.02628884 -0.0003330127
v 0.1275868 0.0002999902 -0.0003829629
v 0.1275868 0.02628884 -0.0003829629
v 0.1274574 0.0002999902 -0.0004
v 0.1274574 0.02628884 -0.0004
v 0.1274574 0.02628884 0
v 0.1274574 0.0002999902 0
v 0.1274833 0.02628884 3.407417E-06
v 0.1274833 0.0002999902 3.407417E-06
v 0.1275074 0.02628884 1.339746E-05
v 0.1275074 0.0002999902 1.339746E-05
v 0.1275281 0.02628884 2.928932E-05
v 0.1275281 0.0002999902 2.928932E-05
v 0.127544 0.02628884 5E-05
v 0.127544 0.0002999902 5E-05
v 0.127554 0.02628884 7.411809E-05
v 0.127554 0.0002999902 7.411809E-05
v 0.1275574 0.02628884 0.0001
v 0.1275574 0.0002999902 0.0001
v 0.1275574 0.0002999902 0.008617257
v 0.1279574 0.0002999902 0.008617257
v 0.127554 0.0002999902 0.008643138
v 0.1279404 0.0002999902 0.008746666
v 0.127544 0.0002999902 0.008667257
v 0.1278905 0.0002999902 0.008867256
v 0.1275281 0.0002999902 0.008687967
v 0.127811 0.0002999902 0.00897081
v 0.1275074 0.0002999902 0.00870386
v 0.1277074 0.0002999902 0.00905027
v 0.1274833 0.0002999902 0.008713849
v 0.1275868 0.0002999902 0.009100219
v 0.1274574 0.0002999902 0.008717257
v 0.1274574 0.0002999902 0.009117257
v 0.1274574 0.02628884 0.008717257
v 0.1274574 0.02628884 0.009117257
v 0.1274833 0.02628884 0.008713849
v 0.1275868 0.02628884 0.009100219
v 0.1275074 0.02628884 0.00870386
v 0.1277074 0.02628884 0.00905027
v 0.1275281 0.02628884 0.008687967
v 0.127811 0.02628884 0.00897081
v 0.127544 0.02628884 0.008667257
v 0.1278905 0.02628884 0.008867256
v 0.127554 0.02628884 0.008643138
v 0.1279404 0.02628884 0.008746666
v 0.1275574 0.02628884 0.008617257
v 0.1279574 0.02628884 0.008617257
v 0.1274574 0.02628884 0.009117257
v 0.1274574 0.0002999902 0.009117257
v 0.1275868 0.0002999902 0.009100219
v 0.1274574 0.02628884 0.009117257
v 0.1275868 0.0002999902 0.009100219
v 0.1275868 0.02628884 0.009100219
v 0.1277074 0.0002999902 0.00905027
v 0.1277074 0.02628884 0.00905027
v 0.127811 0.0002999902 0.00897081
v 0.127811 0.02628884 0.00897081
v 0.1278905 0.0002999902 0.008867256
v 0.1278905 0.02628884 0.008867256
v 0.1279404 0.0002999902 0.008746666
v 0.1279404 0.02628884 0.008746666
v 0.1279574 0.0002999902 0.008617257
v 0.1279574 0.02628884 0.008617257
v 0.1275574 0.02628884 0.008617257
v 0.1275574 0.0002999902 0.008617257
v 0.127554 0.02628884 0.008643138
v 0.127554 0.0002999902 0.008643138
v 0.127544 0.02628884 0.008667257
v 0.127544 0.0002999902 0.008667257
v 0.1275281 0.02628884 0.008687967
v 0.1275281 0.0002999902 0.008687967
v 0.1275074 0.02628884 0.00870386
v 0.1275074 0.0002999902 0.00870386
v 0.1274833 0.02628884 0.008713849
v 0.1274833 0.0002999902 0.008713849
v 0.1274574 0.02628884 0.008717257
v 0.1274574 0.0002999902 0.008717257
v 0.1044471 0.0307931 0.008717257
v 0.1044471 0.0307931 0.009117257
v 0.104946 0.03074962 0.009117257
v 0.1044471 0.0307931 0.008717257
v 0.104946 0.03074962 0.009117257
v 0.104946 0.03074962 0.008717257
v 0.1057691 0.03055114 0.009117257
v 0.1057691 0.03055114 0.008717257
v 0.1065405 0.03020221 0.009117257
v 0.1065405 0.03020221 0.008717257
v 0.107233 0.02971515 0.009117257
v 0.107233 0.02971515 0.008717257
v 0.1078222 0.02910715 0.009117257
v 0.1078222 0.02910715 0.008717257
v 0.1082873 0.02839971 0.009117257
v 0.1082873 0.02839971 0.008717257
v 0.1086119 0.02761772 0.009117257
v 0.1086119 0.02761772 0.008717257
v 0.1087844 0.02678886 0.009117257
v 0.1087844 0.02678886 0.008717257
v 0.1088123 0.02628884 0.009117257
v 0.1088123 0.02628884 0.008717257
v 0.1274574 0.0002999902 0.009117257
v 0.1274574 0.02628884 0.009117257
v 0.1044471 0.0002999902 0.009117257
v 0.1088123 0.02628884 0.009117257
v 0.1044471 0.0307931 0.009117257
v 0.1087844 0.02678886 0.009117257
v 0.104946 0.03074962 0.009117257
v 0.1057691 0.03055114 0.009117257
v 0.1078222 0.02910715 0.009117257
v 0.107233 0.02971515 0.009117257
v 0.1065405 0.03020221 0.009117257
v 0.1078222 0.02910715 0.009117257
v 0.1065405 0.03020221 0.009117257
v 0.1082873 0.02839971 0.009117257
v 0.1057691 0.03055114 0.009117257
v 0.1087844 0.02678886 0.009117257
v 0.1065405 0.03020221 0.009117257
v 0.1086119 0.02761772 0.009117257
v 0.1082873 0.02839971 0.009117257
v 0.1088123 0.02628884 0.008717257
v 0.1088123 0.02628884 0.009117257
v 0.1274574 0.02628884 0.008717257
v 0.1274574 0.02628884 0.009117257
v 0.1088123 0.02628884 0.008717257
v 0.1274574 0.02628884 0.008717257
v 0.1274574 0.0002999902 0.008717257
v 0.1057691 0.03055114 0.008717257
v 0.1065405 0.03020221 0.008717257
v 0.1087844 0.02678886 0.008717257
v 0.1274574 0.0002999902 0.008717257
v 0.1044471 0.0002999902 0.008717257
v 0.1088123 0.02628884 0.008717257
v 0.1044471 0.0307931 0.008717257
v 0.1087844 0.02678886 0.008717257
v 0.104946 0.03074962 0.008717257
v 0.1057691 0.03055114 0.008717257
v 0.1065405 0.03020221 0.008717257
v 0.107233 0.02971515 0.008717257
v 0.1078222 0.02910715 0.008717257
v 0.1078222 0.02910715 0.008717257
v 0.1082873 0.02839971 0.008717257
v 0.1065405 0.03020221 0.008717257
v 0.1086119 0.02761772 0.008717257
v 0.1087844 0.02678886 0.008717257
v 0.1044471 0.0002999902 0.008717257
v 0.1274574 0.0002999902 0.008717257
v 0.1044471 0.0002999902 0.009117257
v 0.1274574 0.0002999902 0.009117257
v 0.1044471 0.0002999902 0.008717257
v 0.1044471 0.0002999902 0.009117257
v 0.1044304 0.0002999902 0.008715844
v 0.1043634 0.0002999902 0.009110192
v 0.1044068 0.0002999902 0.008708763
v 0.1042455 0.0002999902 0.009074787
v 0.1043857 0.0002999902 0.008696134
v 0.1041398 0.0002999902 0.009011646
v 0.1043683 0.0002999902 0.008678724
v 0.1040528 0.0002999902 0.008924596
v 0.1043556 0.0002999902 0.008657589
v 0.1039896 0.0002999902 0.008818915
v 0.1043486 0.0002999902 0.008634008
v 0.1039542 0.0002999902 0.00870101
v 0.1043471 0.0002999902 0.008617257
v 0.1039471 0.0002999902 0.008617257
v 0.1044471 0.0307931 0.009117257
v 0.1044471 0.0307931 0.008717257
v 0.1043647 0.03079358 0.009110295
v 0.1044307 0.03079358 0.008715864
v 0.1042763 0.03079408 0.009086893
v 0.104413 0.03079408 0.008711183
v 0.1042456 0.03079429 0.009074548
v 0.1044068 0.03079429 0.008708715
v 0.1041916 0.03079462 0.009046808
v 0.104396 0.03079462 0.008703167
v 0.1041398 0.03079498 0.009011589
v 0.1043857 0.03079498 0.008696123
v 0.1041153 0.03079516 0.008991195
v 0.1043808 0.03079516 0.008692045
v 0.1040936 0.03079534 0.00897081
v 0.1043764 0.03079534 0.008687967
v 0.1043471 0.03079534 0.008617257
v 0.1039471 0.03079534 0.008617257
v 0.1043486 0.03079534 0.008634008
v 0.1039542 0.03079534 0.00870101
v 0.1043556 0.03079534 0.008657589
v 0.1039896 0.03079534 0.008818915
v 0.1043683 0.03079534 0.008678724
v 0.1040528 0.03079534 0.008924596
v 0.1043764 0.03079534 0.008687967
v 0.1040936 0.03079534 0.00897081
v 0.1041398 0.0002999902 0.009011646
v 0.1041398 0.03079498 0.009011589
v 0.1040528 0.0002999902 0.008924596
v 0.1041153 0.03079516 0.008991195
v 0.1040936 0.03079534 0.00897081
v 0.1043647 0.03079358 0.009110295
v 0.1042763 0.03079408 0.009086893
v 0.1042455 0.0002999902 0.009074787
v 0.1042456 0.03079429 0.009074548
v 0.1041398 0.0002999902 0.009011646
v 0.1041916 0.03079462 0.009046808
v 0.1041398 0.03079498 0.009011589
v 0.1042455 0.0002999902 0.009074787
v 0.1043634 0.0002999902 0.009110192
v 0.1043647 0.03079358 0.009110295
v 0.1044471 0.0002999902 0.009117257
v 0.1044471 0.0307931 0.009117257
v 0.1040936 0.03079534 0.00897081
v 0.1040528 0.03079534 0.008924596
v 0.1040528 0.0002999902 0.008924596
v 0.1039896 0.03079534 0.008818915
v 0.1039896 0.0002999902 0.008818915
v 0.1039542 0.03079534 0.00870101
v 0.1039542 0.0002999902 0.00870101
v 0.1039471 0.03079534 0.008617257
v 0.1039471 0.0002999902 0.008617257
v 0.104396 0.03079462 0.008703167
v 0.1044068 0.03079429 0.008708715
v 0.1044068 0.0002999902 0.008708763
v 0.1044304 0.0002999902 0.008715844
v 0.1044307 0.03079358 0.008715864
v 0.1044471 0.0002999902 0.008717257
v 0.1044471 0.0307931 0.008717257
v 0.1044068 0.0002999902 0.008708763
v 0.1044068 0.03079429 0.008708715
v 0.1044304 0.0002999902 0.008715844
v 0.104413 0.03079408 0.008711183
v 0.1044307 0.03079358 0.008715864
v 0.104396 0.03079462 0.008703167
v 0.1044068 0.0002999902 0.008708763
v 0.1043857 0.03079498 0.008696123
v 0.1043857 0.0002999902 0.008696134
v 0.1043808 0.03079516 0.008692045
v 0.1043683 0.0002999902 0.008678724
v 0.1043764 0.03079534 0.008687967
v 0.1043471 0.0002999902 0.008617257
v 0.1043471 0.03079534 0.008617257
v 0.1043486 0.0002999902 0.008634008
v 0.1043486 0.03079534 0.008634008
v 0.1043556 0.0002999902 0.008657589
v 0.1043556 0.03079534 0.008657589
v 0.1043683 0.0002999902 0.008678724
v 0.1043683 0.03079534 0.008678724
v 0.1043764 0.03079534 0.008687967
v 0.1039471 0.0002999902 0.001657849
v 0.1039471 0.03079534 0.001657849
v 0.1043471 0.0002999902 0.001657849
v 0.1043471 0.03079534 0.001657849
v 0.1039471 0.03079534 0.008617257
v 0.1039471 0.03079534 0.001657849
v 0.1039471 0.0002999902 0.008617257
v 0.1039471 0.0002999902 0.001657849
v 0.1043471 0.03079534 0.001657849
v 0.1039471 0.03079534 0.001657849
v 0.1043471 0.03079534 0.008617257
v 0.1039471 0.03079534 0.008617257
v 0.1043471 0.0002999902 0.001657849
v 0.1043471 0.03079534 0.001657849
v 0.1043471 0.0002999902 0.008617257
v 0.1043471 0.03079534 0.008617257
v 0.1039471 0.0002999902 0.001657849
v 0.1043471 0.0002999902 0.001657849
v 0.1039471 0.0002999902 0.008617257
v 0.1043471 0.0002999902 0.008617257
vt 0.8936713 0.3603516
vt 0.8936713 0.6396484
vt 0.8805549 0.3603516
vt 0.8805549 0.6396484
vt 0.1194451 0.3603516
vt 0.1194451 0.6396484
vt 0.1063287 0.3603516
vt 0.1063287 0.6396484
vt 0.6396484 0.8522234
vt 0.3603516 0.8522234
vt 0.6396484 0
vt 0.3603516 0
vt 0.6396484 0
vt 0.6396484 0.8522234
vt 0.3603516 0
vt 0.3603516 0.8522234
vt 0.1063287 0.6396484
vt 0.1063287 0.3533118
vt 0.1194456 0.6396484
vt 0.1194456 0.3533118
vt 0.1063287 1
vt 0.1063287 0
vt 0.1194456 1
vt 0.1194456 0
vt 0.6396484 1
vt 0.3533118 1
vt 0.6396484 0
vt 0.3533118 0
vt 0.8805544 0.6396484
vt 0.8805544 0.3533118
vt 0.8936713 0.6396484
vt 0.8936713 0.3533118
vt 0.1204062 0.6419672
vt 0.111131 0.6512421
vt 0.1201384 0.6416641
vt 0.109792 0.6497267
vt 0.1197243 0.640971
vt 0.1077216 0.6462612
vt 0.1194918 0.6401978
vt 0.1065605 0.6423949
vt 0.1194456 0.6396484
vt 0.1063287 0.6396484
vt 0.6466882 0
vt 0.6466882 1
vt 0.3603516 0
vt 0.3603516 1
vt 0.1227248 0.6429276
vt 0.1227248 0.6560444
vt 0.1225297 0.6429217
vt 0.1217499 0.6560147
vt 0.1219177 0.6428254
vt 0.1186893 0.6555334
vt 0.1214027 0.6426475
vt 0.1161149 0.6546436
vt 0.1213391 0.6426186
vt 0.1157963 0.6544992
vt 0.1208208 0.6423173
vt 0.1132042 0.6529926
vt 0.1207092 0.6422347
vt 0.112648 0.6525794
vt 0.1204062 0.6419672
vt 0.111131 0.6512421
vt 0.1227248 0
vt 0.1227248 0.9999266
vt 0.1221755 0
vt 0.1225297 0.9999332
vt 0.1225297 0.9999332
vt 0.1219177 0.9999504
vt 0.1221755 0
vt 0.1214027 0.9999657
vt 0.1214023 0
vt 0.1213391 0.9999685
vt 0.1207089 0
vt 0.1208208 0.9999847
vt 0.1208208 0.9999847
vt 0.1207092 0.9999886
vt 0.1207089 0
vt 0.1204062 1
vt 0.6416641 0
vt 0.6416641 1
vt 0.640971 0
vt 0.640971 1
vt 0.6401978 0
vt 0.6401978 1
vt 0.6396484 0
vt 0.6396484 1
vt 0.8805544 0.6396484
vt 0.8936713 0.6396484
vt 0.8805082 0.6401978
vt 0.8934395 0.6423949
vt 0.8802757 0.640971
vt 0.8922784 0.6462612
vt 0.8798616 0.6416641
vt 0.890208 0.6497267
vt 0.8792911 0.642235
vt 0.8873534 0.6525812
vt 0.8785977 0.6426491
vt 0.883888 0.6546518
vt 0.8778245 0.6428813
vt 0.8800218 0.6558127
vt 0.8772752 0.6429276
vt 0.8772752 0.6560444
vt 0.6429276 0.8522234
vt 0.6560444 0.8522234
vt 0.6560444 0.8686209
vt 0.6429276 0.8522234
vt 0.6560444 0.8686209
vt 0.6429276 0.8686209
vt 0.6560444 0.8958006
vt 0.6429276 0.8958006
vt 0.6560444 0.921443
vt 0.6429276 0.921443
vt 0.6560444 0.9446421
vt 0.6429276 0.9446421
vt 0.2140789 0.6560444
vt 0.2140789 0.6429276
vt 0.1913693 0.6560444
vt 0.1913693 0.6429276
vt 0.1660736 0.6560444
vt 0.1660736 0.6429276
vt 0.1390841 0.6560444
vt 0.1390841 0.6429276
vt 0.1227248 0.6560444
vt 0.1227248 0.6429276
vt 0.8813107 0.9999504
vt 0.8800218 0
vt 0.883888 0
vt 0.8800218 0
vt 0.8813107 0.9999504
vt 0.8772752 0
vt 0.8782501 0.9999332
vt 0.8772752 0.9999266
vt 0.8867958 0.9999847
vt 0.8842037 0.9999685
vt 0.883888 0
vt 0.8838851 0.9999657
vt 0.8813107 0.9999504
vt 0.8867958 0.9999847
vt 0.883888 0
vt 0.887352 0.9999886
vt 0.8873534 0
vt 0.888869 1
vt 0.3502733 0
vt 0.3502733 1
vt 0.3537388 0
vt 0.3537388 1
vt 0.3576051 0
vt 0.3576051 1
vt 0.3603516 0
vt 0.3603516 1
vt 0.1227243 0.8522234
vt 0.1227243 0
vt 0.7341352 0.8522234
vt 0.8772752 0
vt 0.7350476 0.8686209
vt 0.7341352 0.8522234
vt 0.8609159 0.9985008
vt 0.8772752 0
vt 0.8772752 0.9999266
vt 0.751349 0.921443
vt 0.8086307 0.9805508
vt 0.7665999 0.9446421
vt 0.7859211 0.9645786
vt 0.8609159 0.9985008
vt 0.8339264 0.991993
vt 0.7350476 0.8686209
vt 0.8086307 0.9805508
vt 0.7407062 0.8958006
vt 0.751349 0.921443
vt 0.1227243 0.6429276
vt 0.8772752 0.6429276
vt 0.1227243 0.6560444
vt 0.8772752 0.6560444
vt 0.8772757 0
vt 0.8772757 0.8522234
vt 0.1227248 0
vt 0.2658648 0.8522234
vt 0.1227248 0.9999266
vt 0.2649524 0.8686209
vt 0.1390841 0.9985008
vt 0.2592938 0.8958006
vt 0.1913693 0.9805508
vt 0.2649524 0.8686209
vt 0.1660736 0.991993
vt 0.1390841 0.9985008
vt 0.2592938 0.8958006
vt 0.248651 0.921443
vt 0.1913693 0.9805508
vt 0.2334001 0.9446421
vt 0.2140789 0.9645786
vt 0.8772757 0.6560444
vt 0.2658648 0.6560444
vt 0.8772757 0.6429276
vt 0.2658648 0.6429276
vt 0.1227243 0.6429276
vt 0.1227243 0.6560444
vt 0.1218755 0.6428159
vt 0.1184809 0.6554857
vt 0.1210849 0.6424883
vt 0.1145265 0.6538478
vt 0.1204054 0.6419672
vt 0.111131 0.6512421
vt 0.1198843 0.641288
vt 0.108525 0.6478465
vt 0.1195571 0.6404972
vt 0.1068871 0.643892
vt 0.1194451 0.6396484
vt 0.1063287 0.6396484
vt 0.8805549 0.6396484
vt 0.8936713 0.6396484
vt 0.8804429 0.6404972
vt 0.8931129 0.643892
vt 0.8801157 0.641288
vt 0.891475 0.6478465
vt 0.8795946 0.6419672
vt 0.888869 0.6512421
vt 0.8789151 0.6424883
vt 0.8854735 0.6538478
vt 0.8781245 0.6428159
vt 0.8815191 0.6554857
vt 0.8772757 0.6429276
vt 0.8772757 0.6560444
vt 0.6396484 0.8522234
vt 0.6396484 0
vt 0.643892 0
vt 0.6396484 0.8522234
vt 0.643892 0
vt 0.643892 0.8522234
vt 0.6478465 0
vt 0.6478465 0.8522234
vt 0.111131 0
vt 0.111131 0.8522234
vt 0.1145265 0
vt 0.1145265 0.8522234
vt 0.1184809 0
vt 0.1184809 0.8522234
vt 0.1227243 0
vt 0.1227243 0.8522234
vt 0.8772757 0.8522234
vt 0.8772757 0
vt 0.8781245 0.8522234
vt 0.8781245 0
vt 0.8789151 0.8522234
vt 0.8789151 0
vt 0.8795946 0.8522234
vt 0.8795946 0
vt 0.358712 0.8522234
vt 0.358712 0
vt 0.3595028 0.8522234
vt 0.3595028 0
vt 0.3603516 0.8522234
vt 0.3603516 0
vt 0.1194451 0.3603516
vt 0.1063287 0.3603516
vt 0.1195571 0.3595029
vt 0.1068871 0.356108
vt 0.1198843 0.358712
vt 0.108525 0.3521536
vt 0.1204054 0.3580328
vt 0.111131 0.3487579
vt 0.1210849 0.3575116
vt 0.1145265 0.3461522
vt 0.1218755 0.3571841
vt 0.1184809 0.3445143
vt 0.1227243 0.3570724
vt 0.1227243 0.3439556
vt 0.8772757 0.3570724
vt 0.8772757 0.3439556
vt 0.8781245 0.3571841
vt 0.8815191 0.3445143
vt 0.8789151 0.3575116
vt 0.8854735 0.3461522
vt 0.8795946 0.3580328
vt 0.888869 0.3487579
vt 0.8801157 0.358712
vt 0.891475 0.3521536
vt 0.8804429 0.3595029
vt 0.8931129 0.356108
vt 0.8805549 0.3603516
vt 0.8936713 0.3603516
vt 0.8772757 0.8522234
vt 0.8772757 0
vt 0.8815191 0
vt 0.8772757 0.8522234
vt 0.8815191 0
vt 0.8815191 0.8522234
vt 0.8854735 0
vt 0.8854735 0.8522234
vt 0.888869 0
vt 0.888869 0.8522234
vt 0.3521536 0
vt 0.3521536 0.8522234
vt 0.356108 0
vt 0.356108 0.8522234
vt 0.3603516 0
vt 0.3603516 0.8522234
vt 0.6396484 0.8522234
vt 0.6396484 0
vt 0.6404971 0.8522234
vt 0.6404971 0
vt 0.641288 0.8522234
vt 0.641288 0
vt 0.1204054 0.8522234
vt 0.1204054 0
vt 0.1210849 0.8522234
vt 0.1210849 0
vt 0.1218755 0.8522234
vt 0.1218755 0
vt 0.1227243 0.8522234
vt 0.1227243 0
vt 0.1227248 0.3570724
vt 0.1227248 0.3439556
vt 0.1390841 0.3439556
vt 0.1227248 0.3570724
vt 0.1390841 0.3439556
vt 0.1390841 0.3570724
vt 0.1660736 0.3439556
vt 0.1660736 0.3570724
vt 0.1913693 0.3439556
vt 0.1913693 0.3570724
vt 0.2140789 0.3439556
vt 0.2140789 0.3570724
vt 0.3439556 0.9446421
vt 0.3570724 0.9446421
vt 0.3439556 0.921443
vt 0.3570724 0.921443
vt 0.3439556 0.8958006
vt 0.3570724 0.8958006
vt 0.3439556 0.8686209
vt 0.3570724 0.8686209
vt 0.3439556 0.8522234
vt 0.3570724 0.8522234
vt 0.8772757 0
vt 0.8772757 0.8522234
vt 0.1227248 0
vt 0.2658648 0.8522234
vt 0.1227248 0.9999266
vt 0.2649524 0.8686209
vt 0.1390841 0.9985008
vt 0.1660736 0.991993
vt 0.2334001 0.9446421
vt 0.2140789 0.9645786
vt 0.1913693 0.9805508
vt 0.2334001 0.9446421
vt 0.1913693 0.9805508
vt 0.248651 0.921443
vt 0.1660736 0.991993
vt 0.2649524 0.8686209
vt 0.1913693 0.9805508
vt 0.2592938 0.8958006
vt 0.248651 0.921443
vt 0.2658648 0.3570724
vt 0.2658648 0.3439556
vt 0.8772757 0.3570724
vt 0.8772757 0.3439556
vt 0.7341352 0.8522234
vt 0.1227243 0.8522234
vt 0.1227243 0
vt 0.8339264 0.991993
vt 0.8086307 0.9805508
vt 0.7350476 0.8686209
vt 0.1227243 0
vt 0.8772752 0
vt 0.7341352 0.8522234
vt 0.8772752 0.9999266
vt 0.7350476 0.8686209
vt 0.8609159 0.9985008
vt 0.8339264 0.991993
vt 0.8086307 0.9805508
vt 0.7859211 0.9645786
vt 0.7665999 0.9446421
vt 0.7665999 0.9446421
vt 0.751349 0.921443
vt 0.8086307 0.9805508
vt 0.7407062 0.8958006
vt 0.7350476 0.8686209
vt 0.8772752 0.3570724
vt 0.1227243 0.3570724
vt 0.8772752 0.3439556
vt 0.1227243 0.3439556
vt 0.8772752 0.3570724
vt 0.8772752 0.3439556
vt 0.8778245 0.3571187
vt 0.8800218 0.3441873
vt 0.8785977 0.3573509
vt 0.883888 0.3453482
vt 0.8792911 0.357765
vt 0.8873534 0.3474188
vt 0.8798616 0.3583359
vt 0.890208 0.3502733
vt 0.8802757 0.359029
vt 0.8922784 0.3537388
vt 0.8805082 0.3598022
vt 0.8934395 0.3576051
vt 0.8805544 0.3603516
vt 0.8936713 0.3603516
vt 0.1227248 0.3439556
vt 0.1227248 0.3570724
vt 0.1200211 0.3441839
vt 0.122184 0.357118
vt 0.1171229 0.3449513
vt 0.1216044 0.3572716
vt 0.1161156 0.3453561
vt 0.121403 0.3573524
vt 0.1143458 0.3462658
vt 0.1210489 0.3575344
vt 0.112648 0.3474207
vt 0.1207092 0.3577654
vt 0.1118414 0.3480895
vt 0.120548 0.3578991
vt 0.111131 0.3487579
vt 0.1204062 0.3580328
vt 0.1194456 0.3603516
vt 0.1063287 0.3603516
vt 0.1194918 0.3598022
vt 0.1065605 0.3576051
vt 0.1197243 0.359029
vt 0.1077216 0.3537388
vt 0.1201384 0.3583359
vt 0.109792 0.3502733
vt 0.1204062 0.3580328
vt 0.111131 0.3487579
vt 0.1126466 0
vt 0.112648 0.9999886
vt 0.6497267 0
vt 0.1118414 0.9999943
vt 0.111131 1
vt 0.1200211 0.9999428
vt 0.1171229 0.999959
vt 0.116112 0
vt 0.1161156 0.9999657
vt 0.1126466 0
vt 0.1143458 0.9999771
vt 0.112648 0.9999886
vt 0.116112 0
vt 0.1199782 0
vt 0.1200211 0.9999428
vt 0.1227248 0
vt 0.1227248 0.9999266
vt 0.111131 1
vt 0.6497267 1
vt 0.6497267 0
vt 0.6462612 1
vt 0.6462612 0
vt 0.6423949 1
vt 0.6423949 0
vt 0.6396484 1
vt 0.6396484 0
vt 0.8789511 0.9999771
vt 0.878597 0.9999657
vt 0.8785977 0
vt 0.8778245 0
vt 0.877816 0.9999428
vt 0.8772752 0
vt 0.8772752 0.9999266
vt 0.8785977 0
vt 0.878597 0.9999657
vt 0.8778245 0
vt 0.8783956 0.999959
vt 0.877816 0.9999428
vt 0.8789511 0.9999771
vt 0.8785977 0
vt 0.8792908 0.9999886
vt 0.8792911 0
vt 0.879452 0.9999943
vt 0.3583359 0
vt 0.8795938 1
vt 0.3603516 0
vt 0.3603516 1
vt 0.3598023 0
vt 0.3598023 1
vt 0.359029 0
vt 0.359029 1
vt 0.3583359 0
vt 0.3583359 1
vt 0.8795938 1
vt 0.8936713 0
vt 0.8936713 1
vt 0.8805544 0
vt 0.8805544 1
vt 0.6396484 1
vt 0.4114364 1
vt 0.6396484 0
vt 0.4114364 0
vt 0.1194456 0.5885636
vt 0.1063287 0.5885636
vt 0.1194456 0.3603516
vt 0.1063287 0.3603516
vt 0.5885636 0
vt 0.5885636 1
vt 0.3603516 0
vt 0.3603516 1
vt 0.8936713 0.5885636
vt 0.8805544 0.5885636
vt 0.8936713 0.3603516
vt 0.8805544 0.3603516
vn 0 1 0
vn 0 1 0
vn 0 1 0
vn 0 1 0
vn 0 -1 0
vn 0 -1 0
vn 0 -1 0
vn 0 -1 0
vn -1 0 -3.491481E-15
vn -1 0 -3.491481E-15
vn -1 0 -3.491481E-15
vn -1 0 -3.491481E-15
vn 1 0 3.491481E-15
vn 1 0 3.491481E-15
vn 1 0 3.491481E-15
vn 1 0 3.491481E-15
vn 0 1 0
vn 0 1 0
vn 0 1 0
vn 0 1 0
vn 3.491481E-15 0 1
vn 3.491481E-15 0 1
vn 3.491481E-15 0 1
vn 3.491481E-15 0 1
vn 1 0 -3.491481E-15
vn 1 0 -3.491481E-15
vn 1 0 -3.491481E-15
vn 1 0 -3.491481E-15
vn 0 -1 0
vn 0 -1 0
vn 0 -1 0
vn 0 -1 0
vn 0 1 0
vn 0 1 0
vn 0 1 0
vn 0 1 0
vn 0 1 0
vn 0 1 0
vn 0 1 0
vn 0 1 0
vn 0 1 0
vn 0 1 0
vn -1 0 3.491481E-15
vn -1 0 3.491481E-15
vn -1 0 3.491481E-15
vn -1 0 3.491481E-15
vn 0.02822938 0.9996015 9.794036E-16
vn 0.005648038 0.9999841 1.959557E-16
vn 0.02819184 0.9996011 -0.001679506
vn 0.005640528 0.999984 -0.0003360291
vn 0.02736682 0.9996013 -0.006952258
vn 0.00547546 0.9999841 -0.001390983
vn 0.02583054 0.9996015 -0.0113861
vn 0.005168086 0.9999841 -0.002278093
vn 0.02558218 0.9996015 -0.01193508
vn 0.005118393 0.999984 -0.002387929
vn 0.02299133 0.9996012 -0.01640323
vn 0.004600025 0.999984 -0.003281902
vn 0.02227892 0.9996011 -0.01736131
vn 0.00445749 0.9999841 -0.003473593
vn 0.01996119 0.9996015 -0.01996119
vn 0.003993766 0.999984 -0.003993766
vn 0 0 1
vn 0 0 1
vn 0.1675062 0 0.985871
vn 0.05946861 0 0.9982302
vn 0.05946861 0 0.9982302
vn 0.2462187 0 0.9692143
vn 0.1675062 0 0.985871
vn 0.4033519 0 0.915045
vn 0.4033172 0 0.9150603
vn 0.4227903 0 0.9062275
vn 0.6146786 0 0.7887776
vn 0.5807893 0 0.8140539
vn 0.5807893 0 0.8140539
vn 0.6146742 0 0.7887811
vn 0.6146786 0 0.7887776
vn 0.7071068 0 0.7071068
vn 0.7887776 0 0.6146786
vn 0.7887776 0 0.6146786
vn 0.9150603 0 0.4033172
vn 0.9150603 0 0.4033172
vn 0.985871 0 0.1675062
vn 0.985871 0 0.1675062
vn 1 0 -2.818926E-14
vn 1 0 -2.818926E-14
vn 0 -1 0
vn 0 -1 0
vn 0 -1 0
vn 0 -1 0
vn 0 -1 0
vn 0 -1 0
vn 0 -1 0
vn 0 -1 0
vn 0 -1 0
vn 0 -1 0
vn 0 -1 0
vn 0 -1 0
vn 0 -1 0
vn 0 -1 0
vn 0 -1 0
vn 0 -1 0
vn 1 0 0
vn 1 0 0
vn 0.9938259 0.1109515 0
vn 1 0 0
vn 0.9938259 0.1109515 0
vn 0.9938259 0.1109515 0
vn 0.9555337 0.2948817 0
vn 0.9555337 0.2948817 0
vn 0.8835146 0.4684037 0
vn 0.8835146 0.4684037 0
vn 0.7803104 0.6253926 0
vn 0.7803104 0.6253926 0
vn 0.6495637 0.7603072 0
vn 0.6495637 0.7603072 0
vn 0.4958897 0.8683856 0
vn 0.4958897 0.8683856 0
vn 0.3247124 0.9458128 0
vn 0.3247124 0.9458128 0
vn 0.1420739 0.9898561 0
vn 0.1420739 0.9898561 0
vn 0.03137077 0.9995078 0
vn 0.03137077 0.9995078 0
vn -0.2462188 0 -0.9692143
vn -0.1675062 0 -0.985871
vn -0.4033172 0 -0.9150603
vn -0.1675062 0 -0.985871
vn -0.2462188 0 -0.9692143
vn 0 0 -1
vn -0.05946873 0 -0.9982302
vn 2.775558E-14 0 -1
vn -0.5807891 0 -0.814054
vn -0.4227903 0 -0.9062275
vn -0.4033172 0 -0.9150603
vn -0.4033519 0 -0.915045
vn -0.2462188 0 -0.9692143
vn -0.5807891 0 -0.814054
vn -0.4033172 0 -0.9150603
vn -0.6146742 0 -0.7887811
vn -0.6146786 0 -0.7887776
vn -0.7071068 0 -0.7071068
vn -0.7887776 0 -0.6146786
vn -0.7887776 0 -0.6146786
vn -0.9150603 0 -0.4033172
vn -0.9150603 0 -0.4033172
vn -0.985871 0 -0.1675062
vn -0.985871 0 -0.1675062
vn -1 0 5.14996E-15
vn -1 0 6.911789E-15
vn 0 0 -1
vn 0 0 -1
vn 0 0 -1
vn 0 0 -1
vn 0 0 -1
vn 0 0 -1
vn 0 0 -1
vn 0 0 -1
vn 0 0 -1
vn 0 0 -1
vn 0 0 -1
vn 0 0 -1
vn 0 0 -1
vn 0 0 -1
vn 0 0 -1
vn 0 0 -1
vn 0 0 -1
vn 0 0 -1
vn 0 0 -1
vn 0 -1 0
vn 0 -1 0
vn 0 -1 0
vn 0 -1 0
vn 0 0 1
vn 0 0 1
vn 0 0 1
vn 0 0 1
vn 0 0 1
vn 0 0 1
vn 0 0 1
vn 0 0 1
vn 0 0 1
vn 0 0 1
vn 0 0 1
vn 0 0 1
vn 0 0 1
vn 0 0 1
vn 0 0 1
vn 0 0 1
vn 0 0 1
vn 0 1 0
vn 0 1 0
vn 0 1 0
vn 0 1 0
vn 0 -1 0
vn 0 -1 0
vn 0 -1 0
vn 0 -1 0
vn 0 -1 0
vn 0 -1 0
vn 0 -1 0
vn 0 -1 0
vn 0 -1 0
vn 0 -1 0
vn 0 -1 0
vn 0 -1 0
vn 0 -1 0
vn 0 -1 0
vn 0 1 0
vn 0 1 0
vn 0 1 0
vn 0 1 0
vn 0 1 0
vn 0 1 0
vn 0 1 0
vn 0 1 0
vn 0 1 0
vn 0 1 0
vn 0 1 0
vn 0 1 0
vn 0 1 0
vn 0 1 0
vn 1 -6.938894E-15 -1.477225E-13
vn 1 -2.775558E-14 -2.203641E-14
vn 0.9659259 0 -0.2588191
vn 1 -6.938894E-15 -1.477225E-13
vn 0.9659259 0 -0.2588191
vn 0.9659259 0 -0.2588191
vn 0.8660254 0 -0.5
vn 0.8660254 0 -0.5
vn 0.7071068 0 -0.7071068
vn 0.7071068 0 -0.7071068
vn 0.5 0 -0.8660254
vn 0.5 0 -0.8660254
vn 0.2588191 0 -0.9659259
vn 0.2588191 0 -0.9659259
vn 0 -2.775558E-14 -1
vn 0 -6.938894E-15 -1
vn 0 3.469447E-14 1
vn 0 1.387779E-13 1
vn -0.2588191 0 0.9659259
vn -0.2588191 0 0.9659259
vn -0.5 0 0.8660254
vn -0.5 0 0.8660254
vn -0.7071068 0 0.7071068
vn -0.7071068 0 0.7071068
vn -0.8660254 0 0.5
vn -0.8660254 0 0.5
vn -0.9659259 0 0.2588191
vn -0.9659259 0 0.2588191
vn -1 3.469447E-14 1.09911E-13
vn -1 1.387779E-13 1.09911E-13
vn 0 -1 0
vn 0 -1 0
vn 0 -1 0
vn 0 -1 0
vn 0 -1 0
vn 0 -1 0
vn 0 -1 0
vn 0 -1 0
vn 0 -1 0
vn 0 -1 0
vn 0 -1 0
vn 0 -1 0
vn 0 -1 0
vn 0 -1 0
vn 0 1 0
vn 0 1 0
vn 0 1 0
vn 0 1 0
vn 0 1 0
vn 0 1 0
vn 0 1 0
vn 0 1 0
vn 0 1 0
vn 0 1 0
vn 0 1 0
vn 0 1 0
vn 0 1 0
vn 0 1 0
vn 1.665335E-13 -6.938894E-15 1
vn 0 -2.775558E-14 1
vn 0.2588191 0 0.9659259
vn 1.665335E-13 -6.938894E-15 1
vn 0.2588191 0 0.9659259
vn 0.2588191 0 0.9659259
vn 0.5 0 0.8660254
vn 0.5 0 0.8660254
vn 0.7071068 0 0.7071068
vn 0.7071068 0 0.7071068
vn 0.8660254 0 0.5
vn 0.8660254 0 0.5
vn 0.9659259 0 0.2588191
vn 0.9659259 0 0.2588191
vn 1 -2.775558E-14 3.469447E-15
vn 1 -6.938894E-15 3.469447E-15
vn -1 3.469447E-14 0
vn -1 1.387779E-13 -1.734723E-14
vn -0.9659259 0 -0.2588191
vn -0.9659259 0 -0.2588191
vn -0.8660254 0 -0.5
vn -0.8660254 0 -0.5
vn -0.7071068 0 -0.7071068
vn -0.7071068 0 -0.7071068
vn -0.5 0 -0.8660254
vn -0.5 0 -0.8660254
vn -0.2588191 0 -0.9659259
vn -0.2588191 0 -0.9659259
vn 0 3.469447E-14 -1
vn 0 1.387779E-13 -1
vn 0.03137077 0.9995078 2.165287E-16
vn 0.03137077 0.9995078 2.190609E-16
vn 0.1420739 0.9898561 9.920969E-16
vn 0.03137077 0.9995078 2.165287E-16
vn 0.1420739 0.9898561 9.920969E-16
vn 0.1420739 0.9898561 9.920969E-16
vn 0.3247124 0.9458128 2.267455E-15
vn 0.3247124 0.9458128 2.267455E-15
vn 0.4958897 0.8683856 3.462779E-15
vn 0.4958897 0.8683856 3.462779E-15
vn 0.6495637 0.7603072 4.535879E-15
vn 0.6495637 0.7603072 4.535879E-15
vn 0.7803104 0.6253926 5.448879E-15
vn 0.7803104 0.6253926 5.448879E-15
vn 0.8835146 0.4684037 6.169549E-15
vn 0.8835146 0.4684037 6.169549E-15
vn 0.9555337 0.2948817 6.672457E-15
vn 0.9555337 0.2948817 6.672457E-15
vn 0.9938259 0.1109515 6.939849E-15
vn 0.9938259 0.1109515 6.939849E-15
vn 1 0 6.982962E-15
vn 1 0 6.977037E-15
vn -6.982962E-15 0 1
vn -6.982962E-15 0 1
vn -6.982962E-15 0 1
vn -6.982962E-15 0 1
vn -6.982962E-15 0 1
vn -6.982962E-15 0 1
vn -6.982962E-15 0 1
vn -6.982962E-15 0 1
vn -6.982962E-15 0 1
vn -6.982962E-15 0 1
vn -6.982962E-15 0 1
vn -6.982962E-15 0 1
vn -6.982962E-15 0 1
vn -6.982962E-15 0 1
vn -6.982962E-15 0 1
vn -6.982962E-15 0 1
vn -6.982962E-15 0 1
vn -6.982962E-15 0 1
vn -6.982962E-15 0 1
vn 0 1 0
vn 0 1 0
vn 0 1 0
vn 0 1 0
vn 6.982962E-15 0 -1
vn 6.982962E-15 0 -1
vn 6.982962E-15 0 -1
vn 6.982962E-15 0 -1
vn 6.982962E-15 0 -1
vn 6.982962E-15 0 -1
vn 6.982962E-15 0 -1
vn 6.982962E-15 0 -1
vn 6.982962E-15 0 -1
vn 6.982962E-15 0 -1
vn 6.982962E-15 0 -1
vn 6.982962E-15 0 -1
vn 6.982962E-15 0 -1
vn 6.982962E-15 0 -1
vn 6.982962E-15 0 -1
vn 6.982962E-15 0 -1
vn 6.982962E-15 0 -1
vn 6.982962E-15 0 -1
vn 6.982962E-15 0 -1
vn 6.982962E-15 0 -1
vn 6.982962E-15 0 -1
vn 0 -1 0
vn 0 -1 0
vn 0 -1 0
vn 0 -1 0
vn 0 -1 0
vn 0 -1 0
vn 0 -1 0
vn 0 -1 0
vn 0 -1 0
vn 0 -1 0
vn 0 -1 0
vn 0 -1 0
vn 0 -1 0
vn 0 -1 0
vn 0 -1 0
vn 0 -1 0
vn 0 -1 0
vn 0 -1 0
vn 0 -1 0
vn 0 -1 0
vn 0.005648038 0.9999841 -1.959557E-16
vn 0.02822938 0.9996015 -9.794036E-16
vn 0.005573364 0.999984 0.0009320537
vn 0.02785615 0.9996011 0.004658489
vn 0.005307771 0.999984 0.001930729
vn 0.0265287 0.9996015 0.009649956
vn 0.005168205 0.9999841 0.002277823
vn 0.02583114 0.9996015 0.01138476
vn 0.004855308 0.999984 0.002888161
vn 0.02426725 0.9996013 0.01443528
vn 0.004457469 0.9999841 0.00347362
vn 0.02227881 0.9996011 0.01736144
vn 0.004226064 0.999984 0.003750847
vn 0.02112223 0.9996011 0.01874705
vn 0.003993766 0.999984 0.003993766
vn 0.01996119 0.9996015 0.01996119
vn 0 1 0
vn 0 1 0
vn 0 1 0
vn 0 1 0
vn 0 1 0
vn 0 1 0
vn 0 1 0
vn 0 1 0
vn 0 1 0
vn 0 1 0
vn -0.6146786 0 0.7887776
vn -0.6146789 0 0.7887774
vn -0.7887776 0 0.6146786
vn -0.6638046 0 0.7479061
vn -0.7071068 0 0.7071068
vn -0.1649432 0 0.9863031
vn -0.3418417 0 0.9397575
vn -0.4033172 0 0.9150603
vn -0.4033042 0 0.915066
vn -0.6146786 0 0.7887776
vn -0.5112349 0 0.859441
vn -0.6146789 0 0.7887774
vn -0.4033172 0 0.9150603
vn -0.1675062 0 0.985871
vn -0.1649432 0 0.9863031
vn 0 0 1
vn 0 0 1
vn -0.7071068 0 0.7071068
vn -0.7887776 0 0.6146786
vn -0.7887776 0 0.6146786
vn -0.9150603 0 0.4033172
vn -0.9150603 0 0.4033172
vn -0.985871 0 0.1675062
vn -0.985871 0 0.1675062
vn -1 0 1.422473E-13
vn -1 0 -5.551115E-14
vn 0.5112351 0 -0.8594409
vn 0.4033042 0 -0.915066
vn 0.4033172 0 -0.9150603
vn 0.1675062 0 -0.985871
vn 0.164943 0 -0.9863032
vn 0 0 -1
vn 0 0 -1
vn 0.4033172 0 -0.9150603
vn 0.4033042 0 -0.915066
vn 0.1675062 0 -0.985871
vn 0.3418417 0 -0.9397576
vn 0.164943 0 -0.9863032
vn 0.5112351 0 -0.8594409
vn 0.4033172 0 -0.9150603
vn 0.6146789 0 -0.7887774
vn 0.6146786 0 -0.7887776
vn 0.6638047 0 -0.747906
vn 0.7887776 0 -0.6146786
vn 0.7071068 0 -0.7071068
vn 1 0 2.775558E-13
vn 1 0 2.775558E-13
vn 0.985871 0 -0.1675062
vn 0.985871 0 -0.1675062
vn 0.9150603 0 -0.4033172
vn 0.9150603 0 -0.4033172
vn 0.7887776 0 -0.6146786
vn 0.7887776 0 -0.6146786
vn 0.7071068 0 -0.7071068
vn 1.047444E-14 0 -1
vn 1.047444E-14 0 -1
vn 1.047444E-14 0 -1
vn 1.047444E-14 0 -1
vn -1 0 -1.047444E-14
vn -1 0 -1.047444E-14
vn -1 0 -1.047444E-14
vn -1 0 -1.047444E-14
vn 0 1 0
vn 0 1 0
vn 0 1 0
vn 0 1 0
vn 1 0 1.047444E-14
vn 1 0 1.047444E-14
vn 1 0 1.047444E-14
vn 1 0 1.047444E-14
vn 0 -1 0
vn 0 -1 0
vn 0 -1 0
vn 0 -1 0
usemtl color
f 1/1/1 2/2/2 3/3/3
f 2/2/2 4/4/4 3/3/3
f 5/5/5 6/6/6 7/7/7
f 6/6/6 8/8/8 7/7/7
f 9/9/9 10/10/10 11/11/11
f 10/10/10 12/12/12 11/11/11
f 13/13/13 14/14/14 15/15/15
f 14/14/14 16/16/16 15/15/15
f 17/17/17 18/18/18 19/19/19
f 18/18/18 20/20/20 19/19/19
f 21/21/21 22/22/22 23/23/23
f 22/22/22 24/24/24 23/23/23
f 25/25/25 26/26/26 27/27/27
f 26/26/26 28/28/28 27/27/27
f 29/29/29 30/30/30 31/31/31
f 30/30/30 32/32/32 31/31/31
f 33/33/33 34/34/34 35/35/35
f 34/34/34 36/36/36 35/35/35
f 35/35/35 36/36/36 37/37/37
f 36/36/36 38/38/38 37/37/37
f 37/37/37 38/38/38 39/39/39
f 38/38/38 40/40/40 39/39/39
f 39/39/39 40/40/40 41/41/41
f 40/40/40 42/42/42 41/41/41
f 43/43/43 44/44/44 45/45/45
f 44/44/44 46/46/46 45/45/45
f 47/47/47 48/48/48 49/49/49
f 48/48/48 50/50/50 49/49/49
f 49/49/49 50/50/50 51/51/51
f 50/50/50 52/52/52 51/51/51
f 51/51/51 52/52/52 53/53/53
f 52/52/52 54/54/54 53/53/53
f 53/53/53 54/54/54 55/55/55
f 54/54/54 56/56/56 55/55/55
f 55/55/55 56/56/56 57/57/57
f 56/56/56 58/58/58 57/57/57
f 57/57/57 58/58/58 59/59/59
f 58/58/58 60/60/60 59/59/59
f 59/59/59 60/60/60 61/61/61
f 60/60/60 62/62/62 61/61/61
f 63/63/63 64/64/64 65/65/65
f 64/64/64 66/66/66 65/65/65
f 67/67/67 68/68/68 69/69/69
f 68/68/68 70/70/70 69/69/69
f 69/69/69 70/70/70 71/71/71
f 70/70/70 72/72/72 71/71/71
f 71/71/71 72/72/72 73/73/73
f 72/72/72 74/74/74 73/73/73
f 75/75/75 76/76/76 77/77/77
f 76/76/76 78/78/78 77/77/77
f 77/77/77 78/78/78 79/79/79
f 78/78/78 80/80/80 79/79/79
f 79/79/79 80/80/80 81/81/81
f 80/80/80 82/82/82 81/81/81
f 81/81/81 82/82/82 83/83/83
f 82/82/82 84/84/84 83/83/83
f 83/83/83 84/84/84 85/85/85
f 84/84/84 86/86/86 85/85/85
f 87/87/87 88/88/88 89/89/89
f 88/88/88 90/90/90 89/89/89
f 89/89/89 90/90/90 91/91/91
f 90/90/90 92/92/92 91/91/91
f 91/91/91 92/92/92 93/93/93
f 92/92/92 94/94/94 93/93/93
f 93/93/93 94/94/94 95/95/95
f 94/94/94 96/96/96 95/95/95
f 95/95/95 96/96/96 97/97/97
f 96/96/96 98/98/98 97/97/97
f 97/97/97 98/98/98 99/99/99
f 98/98/98 100/100/100 99/99/99
f 99/99/99 100/100/100 101/101/101
f 100/100/100 102/102/102 101/101/101
f 103/103/103 104/104/104 105/105/105
f 106/106/106 107/107/107 108/108/108
f 107/107/107 109/109/109 108/108/108
f 108/108/108 109/109/109 110/110/110
f 109/109/109 111/111/111 110/110/110
f 110/110/110 111/111/111 112/112/112
f 111/111/111 113/113/113 112/112/112
f 112/112/112 113/113/113 114/114/114
f 113/113/113 115/115/115 114/114/114
f 114/114/114 115/115/115 116/116/116
f 115/115/115 117/117/117 116/116/116
f 116/116/116 117/117/117 118/118/118
f 117/117/117 119/119/119 118/118/118
f 118/118/118 119/119/119 120/120/120
f 119/119/119 121/121/121 120/120/120
f 120/120/120 121/121/121 122/122/122
f 121/121/121 123/123/123 122/122/122
f 122/122/122 123/123/123 124/124/124
f 125/125/125 126/126/126 127/127/127
f 128/128/128 129/129/129 130/130/130
f 129/129/129 131/131/131 130/130/130
f 130/130/130 131/131/131 132/132/132
f 133/133/133 134/134/134 135/135/135
f 134/134/134 136/136/136 135/135/135
f 135/135/135 136/136/136 137/137/137
f 138/138/138 139/139/139 140/140/140
f 139/139/139 141/141/141 140/140/140
f 140/140/140 141/141/141 142/142/142
f 141/141/141 143/143/143 142/142/142
f 142/142/142 143/143/143 144/144/144
f 143/143/143 145/145/145 144/144/144
f 144/144/144 145/145/145 146/146/146
f 145/145/145 147/147/147 146/146/146
f 146/146/146 147/147/147 148/148/148
f 147/147/147 149/149/149 148/148/148
f 148/148/148 149/149/149 150/150/150
f 151/151/151 152/152/152 153/153/153
f 152/152/152 154/154/154 153/153/153
f 155/155/155 156/156/156 157/157/157
f 156/156/156 158/158/158 157/157/157
f 157/157/157 158/158/158 159/159/159
f 160/160/160 161/161/161 162/162/162
f 161/161/161 163/163/163 162/162/162
f 164/164/164 165/165/165 166/166/166
f 165/165/165 167/167/167 166/166/166
f 166/166/166 167/167/167 168/168/168
f 167/167/167 169/169/169 168/168/168
f 170/170/170 171/171/171 172/172/172
f 171/171/171 173/173/173 172/172/172
f 174/174/174 175/175/175 176/176/176
f 175/175/175 177/177/177 176/176/176
f 176/176/176 177/177/177 178/178/178
f 177/177/177 179/179/179 178/178/178
f 178/178/178 179/179/179 180/180/180
f 181/181/181 182/182/182 183/183/183
f 182/182/182 184/184/184 183/183/183
f 183/183/183 184/184/184 185/185/185
f 186/186/186 187/187/187 188/188/188
f 187/187/187 189/189/189 188/188/188
f 188/188/188 189/189/189 190/190/190
f 191/191/191 192/192/192 193/193/193
f 192/192/192 194/194/194 193/193/193
f 195/195/195 196/196/196 197/197/197
f 196/196/196 198/198/198 197/197/197
f 197/197/197 198/198/198 199/199/199
f 198/198/198 200/200/200 199/199/199
f 199/199/199 200/200/200 201/201/201
f 200/200/200 202/202/202 201/201/201
f 201/201/201 202/202/202 203/203/203
f 202/202/202 204/204/204 203/203/203
f 203/203/203 204/204/204 205/205/205
f 204/204/204 206/206/206 205/205/205
f 205/205/205 206/206/206 207/207/207
f 206/206/206 208/208/208 207/207/207
f 209/209/209 210/210/210 211/211/211
f 210/210/210 212/212/212 211/211/211
f 211/211/211 212/212/212 213/213/213
f 212/212/212 214/214/214 213/213/213
f 213/213/213 214/214/214 215/215/215
f 214/214/214 216/216/216 215/215/215
f 215/215/215 216/216/216 217/217/217
f 216/216/216 218/218/218 217/217/217
f 217/217/217 218/218/218 219/219/219
f 218/218/218 220/220/220 219/219/219
f 219/219/219 220/220/220 221/221/221
f 220/220/220 222/222/222 221/221/221
f 223/223/223 224/224/224 225/225/225
f 226/226/226 227/227/227 228/228/228
f 227/227/227 229/229/229 228/228/228
f 228/228/228 229/229/229 230/230/230
f 229/229/229 231/231/231 230/230/230
f 230/230/230 231/231/231 232/232/232
f 231/231/231 233/233/233 232/232/232
f 232/232/232 233/233/233 234/234/234
f 233/233/233 235/235/235 234/234/234
f 234/234/234 235/235/235 236/236/236
f 235/235/235 237/237/237 236/236/236
f 236/236/236 237/237/237 238/238/238
f 239/239/239 240/240/240 241/241/241
f 240/240/240 242/242/242 241/241/241
f 241/241/241 242/242/242 243/243/243
f 242/242/242 244/244/244 243/243/243
f 243/243/243 244/244/244 245/245/245
f 244/244/244 246/246/246 245/245/245
f 245/245/245 246/246/246 247/247/247
f 246/246/246 248/248/248 247/247/247
f 247/247/247 248/248/248 249/249/249
f 248/248/248 250/250/250 249/249/249
f 249/249/249 250/250/250 251/251/251
f 250/250/250 252/252/252 251/251/251
f 253/253/253 254/254/254 255/255/255
f 254/254/254 256/256/256 255/255/255
f 255/255/255 256/256/256 257/257/257
f 256/256/256 258/258/258 257/257/257
f 257/257/257 258/258/258 259/259/259
f 258/258/258 260/260/260 259/259/259
f 259/259/259 260/260/260 261/261/261
f 260/260/260 262/262/262 261/261/261
f 261/261/261 262/262/262 263/263/263
f 262/262/262 264/264/264 263/263/263
f 263/263/263 264/264/264 265/265/265
f 264/264/264 266/266/266 265/265/265
f 267/267/267 268/268/268 269/269/269
f 268/268/268 270/270/270 269/269/269
f 269/269/269 270/270/270 271/271/271
f 270/270/270 272/272/272 271/271/271
f 271/271/271 272/272/272 273/273/273
f 272/272/272 274/274/274 273/273/273
f 273/273/273 274/274/274 275/275/275
f 274/274/274 276/276/276 275/275/275
f 275/275/275 276/276/276 277/277/277
f 276/276/276 278/278/278 277/277/277
f 277/277/277 278/278/278 279/279/279
f 278/278/278 280/280/280 279/279/279
f 281/281/281 282/282/282 283/283/283
f 284/284/284 285/285/285 286/286/286
f 285/285/285 287/287/287 286/286/286
f 286/286/286 287/287/287 288/288/288
f 287/287/287 289/289/289 288/288/288
f 288/288/288 289/289/289 290/290/290
f 289/289/289 291/291/291 290/290/290
f 290/290/290 291/291/291 292/292/292
f 291/291/291 293/293/293 292/292/292
f 292/292/292 293/293/293 294/294/294
f 293/293/293 295/295/295 294/294/294
f 294/294/294 295/295/295 296/296/296
f 297/297/297 298/298/298 299/299/299
f 298/298/298 300/300/300 299/299/299
f 299/299/299 300/300/300 301/301/301
f 300/300/300 302/302/302 301/301/301
f 301/301/301 302/302/302 303/303/303
f 302/302/302 304/304/304 303/303/303
f 303/303/303 304/304/304 305/305/305
f 304/304/304 306/306/306 305/305/305
f 305/305/305 306/306/306 307/307/307
f 306/306/306 308/308/308 307/307/307
f 307/307/307 308/308/308 309/309/309
f 308/308/308 310/310/310 309/309/309
f 311/311/311 312/312/312 313/313/313
f 314/314/314 315/315/315 316/316/316
f 315/315/315 317/317/317 316/316/316
f 316/316/316 317/317/317 318/318/318
f 317/317/317 319/319/319 318/318/318
f 318/318/318 319/319/319 320/320/320
f 319/319/319 321/321/321 320/320/320
f 320/320/320 321/321/321 322/322/322
f 321/321/321 323/323/323 322/322/322
f 322/322/322 323/323/323 324/324/324
f 323/323/323 325/325/325 324/324/324
f 324/324/324 325/325/325 326/326/326
f 325/325/325 327/327/327 326/326/326
f 326/326/326 327/327/327 328/328/328
f 327/327/327 329/329/329 328/328/328
f 328/328/328 329/329/329 330/330/330
f 329/329/329 331/331/331 330/330/330
f 330/330/330 331/331/331 332/332/332
f 333/333/333 334/334/334 335/335/335
f 334/334/334 336/336/336 335/335/335
f 335/335/335 336/336/336 337/337/337
f 336/336/336 338/338/338 337/337/337
f 337/337/337 338/338/338 339/339/339
f 338/338/338 340/340/340 339/339/339
f 341/341/341 342/342/342 343/343/343
f 344/344/344 345/345/345 346/346/346
f 347/347/347 348/348/348 349/349/349
f 348/348/348 350/350/350 349/349/349
f 349/349/349 350/350/350 351/351/351
f 352/352/352 353/353/353 354/354/354
f 353/353/353 355/355/355 354/354/354
f 356/356/356 357/357/357 358/358/358
f 359/359/359 360/360/360 361/361/361
f 362/362/362 363/363/363 364/364/364
f 363/363/363 365/365/365 364/364/364
f 364/364/364 365/365/365 366/366/366
f 365/365/365 367/367/367 366/366/366
f 366/366/366 367/367/367 368/368/368
f 369/369/369 370/370/370 371/371/371
f 372/372/372 373/373/373 374/374/374
f 373/373/373 375/375/375 374/374/374
f 374/374/374 375/375/375 376/376/376
f 377/377/377 378/378/378 379/379/379
f 378/378/378 380/380/380 379/379/379
f 381/381/381 382/382/382 383/383/383
f 382/382/382 384/384/384 383/383/383
f 383/383/383 384/384/384 385/385/385
f 384/384/384 386/386/386 385/385/385
f 385/385/385 386/386/386 387/387/387
f 386/386/386 388/388/388 387/387/387
f 387/387/387 388/388/388 389/389/389
f 388/388/388 390/390/390 389/389/389
f 389/389/389 390/390/390 391/391/391
f 390/390/390 392/392/392 391/391/391
f 391/391/391 392/392/392 393/393/393
f 392/392/392 394/394/394 393/393/393
f 393/393/393 394/394/394 395/395/395
f 394/394/394 396/396/396 395/395/395
f 397/397/397 398/398/398 399/399/399
f 398/398/398 400/400/400 399/399/399
f 399/399/399 400/400/400 401/401/401
f 400/400/400 402/402/402 401/401/401
f 401/401/401 402/402/402 403/403/403
f 402/402/402 404/404/404 403/403/403
f 403/403/403 404/404/404 405/405/405
f 404/404/404 406/406/406 405/405/405
f 405/405/405 406/406/406 407/407/407
f 406/406/406 408/408/408 407/407/407
f 407/407/407 408/408/408 409/409/409
f 408/408/408 410/410/410 409/409/409
f 409/409/409 410/410/410 411/411/411
f 410/410/410 412/412/412 411/411/411
f 413/413/413 414/414/414 415/415/415
f 414/414/414 416/416/416 415/415/415
f 415/415/415 416/416/416 417/417/417
f 416/416/416 418/418/418 417/417/417
f 417/417/417 418/418/418 419/419/419
f 418/418/418 420/420/420 419/419/419
f 419/419/419 420/420/420 421/421/421
f 420/420/420 422/422/422 421/421/421
f 423/423/423 424/424/424 425/425/425
f 424/424/424 426/426/426 425/425/425
f 425/425/425 426/426/426 427/427/427
f 428/428/428 429/429/429 430/430/430
f 429/429/429 431/431/431 430/430/430
f 430/430/430 431/431/431 432/432/432
f 431/431/431 433/433/433 432/432/432
f 432/432/432 433/433/433 434/434/434
f 435/435/435 436/436/436 437/437/437
f 436/436/436 438/438/438 437/437/437
f 437/437/437 438/438/438 439/439/439
f 440/440/440 441/441/441 442/442/442
f 441/441/441 443/443/443 442/442/442
f 442/442/442 443/443/443 444/444/444
f 443/443/443 445/445/445 444/444/444
f 444/444/444 445/445/445 446/446/446
f 445/445/445 447/447/447 446/446/446
f 446/446/446 447/447/447 448/448/448
f 449/449/449 450/450/450 451/451/451
f 452/452/452 453/453/453 454/454/454
f 453/453/453 455/455/455 454/454/454
f 456/456/456 457/457/457 458/458/458
f 457/457/457 459/459/459 458/458/458
f 458/458/458 459/459/459 460/460/460
f 461/461/461 462/462/462 463/463/463
f 462/462/462 464/464/464 463/463/463
f 463/463/463 464/464/464 465/465/465
f 464/464/464 466/466/466 465/465/465
f 465/465/465 466/466/466 467/467/467
f 468/468/468 469/469/469 470/470/470
f 469/469/469 471/471/471 470/470/470
f 470/470/470 471/471/471 472/472/472
f 471/471/471 473/473/473 472/472/472
f 472/472/472 473/473/473 474/474/474
f 473/473/473 475/475/475 474/474/474
f 474/474/474 475/475/475 476/476/476
f 477/477/477 478/478/478 479/479/479
f 478/478/478 480/480/480 479/479/479
f 481/481/481 482/482/482 483/483/483
f 482/482/482 484/484/484 483/483/483
f 485/485/485 486/486/486 487/487/487
f 486/486/486 488/488/488 487/487/487
f 489/489/489 490/490/490 491/491/491
f 490/490/490 492/492/492 491/491/491
f 493/493/493 494/494/494 495/495/495
f 494/494/494 496/496/496 495/495/495
##########################

